<?xml version="1.0" encoding="utf-8" ?>
<svg baseProfile="full" height="64px" version="1.1" width="64px" xmlns="http://www.w3.org/2000/svg" xmlns:ev="http://www.w3.org/2001/xml-events" xmlns:xlink="http://www.w3.org/1999/xlink"><defs /><rect fill="#1a1332" height="64" rx="10" ry="10" width="64" x="0" y="0" /><circle cx="32.0" cy="32.0" fill="white" r="22" /><polygon fill="white" points="55.0,29.0 55.0,35.0 59.0,35.0 59.0,29.0" /><polygon fill="white" points="50.38477631085024,46.14213562373095 46.14213562373095,50.38477631085024 48.97056274847714,53.213203435596434 53.213203435596434,48.97056274847714" /><polygon fill="white" points="35.0,55.0 29.0,55.0 29.0,59.0 35.0,59.0" /><polygon fill="white" points="17.85786437626905,50.38477631085024 13.615223689149765,46.14213562373095 10.786796564403575,48.97056274847714 15.02943725152286,53.213203435596434" /><polygon fill="white" points="9.0,35.0 9.0,29.0 5.0,29.0 5.0,35.0" /><polygon fill="white" points="13.615223689149762,17.85786437626905 17.857864376269045,13.615223689149765 15.029437251522854,10.786796564403575 10.78679656440357,15.02943725152286" /><polygon fill="white" points="28.999999999999996,9.0 35.0,9.0 35.0,5.0 28.999999999999996,5.0" /><polygon fill="white" points="46.142135623730944,13.615223689149762 50.384776310850235,17.857864376269045 53.21320343559643,15.029437251522854 48.970562748477136,10.78679656440357" /><circle cx="32.0" cy="32.0" fill="#1a1332" r="16" /><text alignment-baseline="middle" fill="white" font-family="Arial" font-size="28px" text-anchor="middle" x="32.0" y="38.0">V</text></svg>